# xmcd
#
# Track frame offsets: 
#        150
#        3035
#        33585
#
# Disc length: 857 seconds
#
# Revision: 0
# Processed by: cddbd v1.5.2PL0 Copyright (c) Steve Scherf et al.
# Submitted via: ExactAudioCopy v1.1
#
DISCID=15035703
DTITLE=Joy - Lip ＆ Breath
DYEAR=1999
DGENRE=R&B
TTITLE0=Intro
TTITLE1=Lip ＆ Breath (Original)
TTITLE2=Lip ＆ Breath (Libro Remix)
EXTD=
EXTT0=
EXTT1=
EXTT2=
PLAYORDER=
